<svg width="39" height="36" viewBox="0 0 39 36" fill="none" xmlns="http://www.w3.org/2000/svg">
    <path fill-rule="evenodd" clip-rule="evenodd" d="M19.0533 0C15.9062 2.20754 11.658 8.2328 16.4216 16.3096C10.197 9.09514 3.089 11.2962 0 13.6294C1.15259 17.4091 5.76584 23.5385 15.4076 20.9966C6.20055 24.6329 6.0684 32.2733 7.34903 35.9986C11.149 36.0656 18.0129 33.7442 19.0145 24.6499C20.016 33.7442 26.8799 36.0656 30.6799 35.9986C31.968 32.2516 31.8268 24.5437 22.4594 20.9335C32.2607 23.6375 36.9393 17.4396 38.1012 13.6294C35.015 11.2983 27.9172 9.09916 21.6966 16.2899C26.4416 8.22299 22.1978 2.20574 19.0533 0Z" fill="#16C89D"/>
</svg>